<svg xmlns="http://www.w3.org/2000/svg" width="980" height="780" viewBox="0 0 980 780">
<rect width="100%" height="100%" fill="#f6f3eb" />
<text x="40" y="50" font-family="Georgia, serif" font-size="30" fill="#111827">Haiku Baseline Spider Chart</text>
<text x="40" y="80" font-family="Georgia, serif" font-size="15" fill="#4b5563">Dataset: Golden Set EN QNA 2026-03-13 Haiku | Samples: 25</text>
<text x="40" y="102" font-family="Georgia, serif" font-size="15" fill="#4b5563">Run: haiku-reference-20260412T162527Z | Judge: gpt-4.1 </text>
<polygon points="305.00,373.75 345.05,396.88 345.05,443.12 305.00,466.25 264.95,443.12 264.95,396.88" fill="none" stroke="#d6d3d1" stroke-width="1" />
<polygon points="305.00,327.50 385.11,373.75 385.11,466.25 305.00,512.50 224.89,466.25 224.89,373.75" fill="none" stroke="#d6d3d1" stroke-width="1" />
<polygon points="305.00,281.25 425.16,350.62 425.16,489.38 305.00,558.75 184.84,489.38 184.84,350.62" fill="none" stroke="#d6d3d1" stroke-width="1" />
<polygon points="305.00,235.00 465.21,327.50 465.21,512.50 305.00,605.00 144.79,512.50 144.79,327.50" fill="none" stroke="#d6d3d1" stroke-width="1" />
<line x1="305" y1="420" x2="305.00" y2="235.00" stroke="#d6d3d1" stroke-width="1" />
<text x="305.00" y="171.00" text-anchor="middle" font-family="Georgia, serif" font-size="15" fill="#111827">
  <tspan x="305.00" dy="-7">Answer</tspan>
  <tspan x="305.00" dy="18">Relevancy</tspan>
</text>
<line x1="305" y1="420" x2="465.21" y2="327.50" stroke="#d6d3d1" stroke-width="1" />
<text x="510.25" y="301.50" text-anchor="start" font-family="Georgia, serif" font-size="15" fill="#111827">
  <tspan x="510.25" dy="-7">Prompt</tspan>
  <tspan x="510.25" dy="18">Alignment</tspan>
</text>
<line x1="305" y1="420" x2="465.21" y2="512.50" stroke="#d6d3d1" stroke-width="1" />
<text x="510.25" y="538.50" text-anchor="start" font-family="Georgia, serif" font-size="15" fill="#111827">
  <tspan x="510.25" dy="-7">Reference</tspan>
  <tspan x="510.25" dy="18">Quality</tspan>
</text>
<line x1="305" y1="420" x2="305.00" y2="605.00" stroke="#d6d3d1" stroke-width="1" />
<text x="305.00" y="669.00" text-anchor="middle" font-family="Georgia, serif" font-size="15" fill="#111827">
  <tspan x="305.00" dy="-7">Citation</tspan>
  <tspan x="305.00" dy="18">Compliance</tspan>
</text>
<line x1="305" y1="420" x2="144.79" y2="512.50" stroke="#d6d3d1" stroke-width="1" />
<text x="99.75" y="538.50" text-anchor="end" font-family="Georgia, serif" font-size="15" fill="#111827">
  <tspan x="99.75" dy="0">Actionability</tspan>
</text>
<line x1="305" y1="420" x2="144.79" y2="327.50" stroke="#d6d3d1" stroke-width="1" />
<text x="99.75" y="301.50" text-anchor="end" font-family="Georgia, serif" font-size="15" fill="#111827">
  <tspan x="99.75" dy="-7">Safety</tspan>
  <tspan x="99.75" dy="18">Handling</tspan>
</text>
<polygon points="305.00,268.61 415.23,356.36 465.21,512.50 305.00,473.13 147.32,511.04 148.17,329.45" fill="#c96f4a33" stroke="#c96f4a" stroke-width="3" />
<circle cx="305.00" cy="268.61" r="4" fill="#c96f4a" />
<circle cx="415.23" cy="356.36" r="4" fill="#c96f4a" />
<circle cx="465.21" cy="512.50" r="4" fill="#c96f4a" />
<circle cx="305.00" cy="473.13" r="4" fill="#c96f4a" />
<circle cx="147.32" cy="511.04" r="4" fill="#c96f4a" />
<circle cx="148.17" cy="329.45" r="4" fill="#c96f4a" />
<rect x="630" y="170" width="22" height="22" fill="#c96f4a33" stroke="#c96f4a" stroke-width="3" />
<text x="664" y="186" font-family="Georgia, serif" font-size="17" fill="#111827">Old Haiku Baseline</text>
<text x="630" y="226" font-family="Georgia, serif" font-size="20" fill="#111827">Mean Scores</text>
<text x="630" y="258" font-family="Georgia, serif" font-size="16" fill="#4b5563">Answer Relevancy: 0.82</text>
<text x="630" y="290" font-family="Georgia, serif" font-size="16" fill="#4b5563">Prompt Alignment: 0.69</text>
<text x="630" y="322" font-family="Georgia, serif" font-size="16" fill="#4b5563">Reference Quality: 1.00</text>
<text x="630" y="354" font-family="Georgia, serif" font-size="16" fill="#4b5563">Citation Compliance: 0.29</text>
<text x="630" y="386" font-family="Georgia, serif" font-size="16" fill="#4b5563">Actionability: 0.98</text>
<text x="630" y="418" font-family="Georgia, serif" font-size="16" fill="#4b5563">Safety Handling: 0.98</text>
</svg>